<mxfile host="app.diagrams.net" agent="Mozilla/5.0 (Windows NT 10.0; Win64; x64) AppleWebKit/537.36 (KHTML, like Gecko) Chrome/128.0.0.0 Safari/537.36 OPR/114.0.0.0 (Edition MSI)" version="24.8.4">
  <diagram id="C5RBs43oDa-KdzZeNtuy" name="Page-1">
    <mxGraphModel dx="980" dy="608" grid="0" gridSize="10" guides="1" tooltips="1" connect="1" arrows="1" fold="1" page="1" pageScale="1" pageWidth="827" pageHeight="1169" math="0" shadow="0">
      <root>
        <mxCell id="WIyWlLk6GJQsqaUBKTNV-0" />
        <mxCell id="WIyWlLk6GJQsqaUBKTNV-1" parent="WIyWlLk6GJQsqaUBKTNV-0" />
        <mxCell id="sUbH88XKsCmU9Ldnoq6X-72" value="Resume" style="swimlane;fontStyle=1;align=center;verticalAlign=top;childLayout=stackLayout;horizontal=1;startSize=26;horizontalStack=0;resizeParent=1;resizeParentMax=0;resizeLast=0;collapsible=1;marginBottom=0;whiteSpace=wrap;html=1;" parent="WIyWlLk6GJQsqaUBKTNV-1" vertex="1">
          <mxGeometry x="281" y="957" width="349" height="156" as="geometry" />
        </mxCell>
        <mxCell id="sUbH88XKsCmU9Ldnoq6X-76" value="resumeID: Long Int" style="text;strokeColor=none;fillColor=none;align=left;verticalAlign=top;spacingLeft=4;spacingRight=4;overflow=hidden;rotatable=0;points=[[0,0.5],[1,0.5]];portConstraint=eastwest;whiteSpace=wrap;html=1;" parent="sUbH88XKsCmU9Ldnoq6X-72" vertex="1">
          <mxGeometry y="26" width="349" height="26" as="geometry" />
        </mxCell>
        <mxCell id="sUbH88XKsCmU9Ldnoq6X-73" value="candidate: Candidate" style="text;strokeColor=none;fillColor=none;align=left;verticalAlign=top;spacingLeft=4;spacingRight=4;overflow=hidden;rotatable=0;points=[[0,0.5],[1,0.5]];portConstraint=eastwest;whiteSpace=wrap;html=1;" parent="sUbH88XKsCmU9Ldnoq6X-72" vertex="1">
          <mxGeometry y="52" width="349" height="26" as="geometry" />
        </mxCell>
        <mxCell id="sUbH88XKsCmU9Ldnoq6X-77" value="education: Education" style="text;strokeColor=none;fillColor=none;align=left;verticalAlign=top;spacingLeft=4;spacingRight=4;overflow=hidden;rotatable=0;points=[[0,0.5],[1,0.5]];portConstraint=eastwest;whiteSpace=wrap;html=1;" parent="sUbH88XKsCmU9Ldnoq6X-72" vertex="1">
          <mxGeometry y="78" width="349" height="26" as="geometry" />
        </mxCell>
        <mxCell id="sUbH88XKsCmU9Ldnoq6X-85" value="keySkills: List&amp;lt;Skill&amp;gt;" style="text;strokeColor=none;fillColor=none;align=left;verticalAlign=top;spacingLeft=4;spacingRight=4;overflow=hidden;rotatable=0;points=[[0,0.5],[1,0.5]];portConstraint=eastwest;whiteSpace=wrap;html=1;" parent="sUbH88XKsCmU9Ldnoq6X-72" vertex="1">
          <mxGeometry y="104" width="349" height="26" as="geometry" />
        </mxCell>
        <mxCell id="sUbH88XKsCmU9Ldnoq6X-104" value="workExperience: List&amp;lt;Experince&amp;gt;" style="text;strokeColor=none;fillColor=none;align=left;verticalAlign=top;spacingLeft=4;spacingRight=4;overflow=hidden;rotatable=0;points=[[0,0.5],[1,0.5]];portConstraint=eastwest;whiteSpace=wrap;html=1;" parent="sUbH88XKsCmU9Ldnoq6X-72" vertex="1">
          <mxGeometry y="130" width="349" height="26" as="geometry" />
        </mxCell>
        <mxCell id="sUbH88XKsCmU9Ldnoq6X-78" value="Education" style="swimlane;fontStyle=1;align=center;verticalAlign=top;childLayout=stackLayout;horizontal=1;startSize=26;horizontalStack=0;resizeParent=1;resizeParentMax=0;resizeLast=0;collapsible=1;marginBottom=0;whiteSpace=wrap;html=1;" parent="WIyWlLk6GJQsqaUBKTNV-1" vertex="1">
          <mxGeometry x="106" y="743" width="160" height="104" as="geometry" />
        </mxCell>
        <mxCell id="sUbH88XKsCmU9Ldnoq6X-79" value="degree: String" style="text;strokeColor=none;fillColor=none;align=left;verticalAlign=top;spacingLeft=4;spacingRight=4;overflow=hidden;rotatable=0;points=[[0,0.5],[1,0.5]];portConstraint=eastwest;whiteSpace=wrap;html=1;" parent="sUbH88XKsCmU9Ldnoq6X-78" vertex="1">
          <mxGeometry y="26" width="160" height="26" as="geometry" />
        </mxCell>
        <mxCell id="sUbH88XKsCmU9Ldnoq6X-80" value="institution: String" style="text;strokeColor=none;fillColor=none;align=left;verticalAlign=top;spacingLeft=4;spacingRight=4;overflow=hidden;rotatable=0;points=[[0,0.5],[1,0.5]];portConstraint=eastwest;whiteSpace=wrap;html=1;" parent="sUbH88XKsCmU9Ldnoq6X-78" vertex="1">
          <mxGeometry y="52" width="160" height="26" as="geometry" />
        </mxCell>
        <mxCell id="sUbH88XKsCmU9Ldnoq6X-81" value="date: Date" style="text;strokeColor=none;fillColor=none;align=left;verticalAlign=top;spacingLeft=4;spacingRight=4;overflow=hidden;rotatable=0;points=[[0,0.5],[1,0.5]];portConstraint=eastwest;whiteSpace=wrap;html=1;" parent="sUbH88XKsCmU9Ldnoq6X-78" vertex="1">
          <mxGeometry y="78" width="160" height="26" as="geometry" />
        </mxCell>
        <mxCell id="sUbH88XKsCmU9Ldnoq6X-84" value="" style="endArrow=diamondThin;endFill=0;endSize=24;html=1;rounded=0;exitX=0.472;exitY=1.096;exitDx=0;exitDy=0;exitPerimeter=0;entryX=0;entryY=0;entryDx=0;entryDy=0;" parent="WIyWlLk6GJQsqaUBKTNV-1" source="sUbH88XKsCmU9Ldnoq6X-81" target="sUbH88XKsCmU9Ldnoq6X-72" edge="1">
          <mxGeometry width="160" relative="1" as="geometry">
            <mxPoint x="359" y="748" as="sourcePoint" />
            <mxPoint x="444" y="968" as="targetPoint" />
          </mxGeometry>
        </mxCell>
        <mxCell id="sUbH88XKsCmU9Ldnoq6X-87" value="Skill" style="swimlane;fontStyle=1;align=center;verticalAlign=top;childLayout=stackLayout;horizontal=1;startSize=26;horizontalStack=0;resizeParent=1;resizeParentMax=0;resizeLast=0;collapsible=1;marginBottom=0;whiteSpace=wrap;html=1;" parent="WIyWlLk6GJQsqaUBKTNV-1" vertex="1">
          <mxGeometry x="283" y="756" width="160" height="78" as="geometry" />
        </mxCell>
        <mxCell id="sUbH88XKsCmU9Ldnoq6X-88" value="name: String" style="text;strokeColor=none;fillColor=none;align=left;verticalAlign=top;spacingLeft=4;spacingRight=4;overflow=hidden;rotatable=0;points=[[0,0.5],[1,0.5]];portConstraint=eastwest;whiteSpace=wrap;html=1;" parent="sUbH88XKsCmU9Ldnoq6X-87" vertex="1">
          <mxGeometry y="26" width="160" height="26" as="geometry" />
        </mxCell>
        <mxCell id="sUbH88XKsCmU9Ldnoq6X-89" value="ProficiencyLevel: String" style="text;strokeColor=none;fillColor=none;align=left;verticalAlign=top;spacingLeft=4;spacingRight=4;overflow=hidden;rotatable=0;points=[[0,0.5],[1,0.5]];portConstraint=eastwest;whiteSpace=wrap;html=1;" parent="sUbH88XKsCmU9Ldnoq6X-87" vertex="1">
          <mxGeometry y="52" width="160" height="26" as="geometry" />
        </mxCell>
        <mxCell id="sUbH88XKsCmU9Ldnoq6X-93" value="&lt;p style=&quot;margin:0px;margin-top:4px;text-align:center;&quot;&gt;&lt;i&gt;&amp;lt;&amp;lt;Interface&amp;gt;&amp;gt;&lt;/i&gt;&lt;br&gt;&lt;b&gt;Informable&lt;/b&gt;&lt;/p&gt;&lt;hr size=&quot;1&quot; style=&quot;border-style:solid;&quot;&gt;&lt;p style=&quot;margin:0px;margin-left:4px;&quot;&gt;getInfo(): String&lt;/p&gt;" style="verticalAlign=top;align=left;overflow=fill;html=1;whiteSpace=wrap;" parent="WIyWlLk6GJQsqaUBKTNV-1" vertex="1">
          <mxGeometry x="224" y="568" width="442" height="70" as="geometry" />
        </mxCell>
        <mxCell id="sUbH88XKsCmU9Ldnoq6X-97" value="" style="endArrow=diamondThin;endFill=0;endSize=24;html=1;rounded=0;exitX=0.491;exitY=1.058;exitDx=0;exitDy=0;entryX=-0.04;entryY=1.077;entryDx=0;entryDy=0;exitPerimeter=0;entryPerimeter=0;" parent="WIyWlLk6GJQsqaUBKTNV-1" source="sUbH88XKsCmU9Ldnoq6X-89" target="sUbH88XKsCmU9Ldnoq6X-123" edge="1">
          <mxGeometry width="160" relative="1" as="geometry">
            <mxPoint x="561" y="859" as="sourcePoint" />
            <mxPoint x="632" y="923" as="targetPoint" />
          </mxGeometry>
        </mxCell>
        <mxCell id="sUbH88XKsCmU9Ldnoq6X-98" value="Candidate" style="swimlane;fontStyle=1;align=center;verticalAlign=top;childLayout=stackLayout;horizontal=1;startSize=26;horizontalStack=0;resizeParent=1;resizeParentMax=0;resizeLast=0;collapsible=1;marginBottom=0;whiteSpace=wrap;html=1;" parent="WIyWlLk6GJQsqaUBKTNV-1" vertex="1">
          <mxGeometry x="656" y="700" width="160" height="182" as="geometry" />
        </mxCell>
        <mxCell id="sUbH88XKsCmU9Ldnoq6X-99" value="name: String" style="text;strokeColor=none;fillColor=none;align=left;verticalAlign=top;spacingLeft=4;spacingRight=4;overflow=hidden;rotatable=0;points=[[0,0.5],[1,0.5]];portConstraint=eastwest;whiteSpace=wrap;html=1;" parent="sUbH88XKsCmU9Ldnoq6X-98" vertex="1">
          <mxGeometry y="26" width="160" height="26" as="geometry" />
        </mxCell>
        <mxCell id="sUbH88XKsCmU9Ldnoq6X-100" value="surname: String" style="text;strokeColor=none;fillColor=none;align=left;verticalAlign=top;spacingLeft=4;spacingRight=4;overflow=hidden;rotatable=0;points=[[0,0.5],[1,0.5]];portConstraint=eastwest;whiteSpace=wrap;html=1;" parent="sUbH88XKsCmU9Ldnoq6X-98" vertex="1">
          <mxGeometry y="52" width="160" height="26" as="geometry" />
        </mxCell>
        <mxCell id="sUbH88XKsCmU9Ldnoq6X-113" value="birthDate: Date" style="text;strokeColor=none;fillColor=none;align=left;verticalAlign=top;spacingLeft=4;spacingRight=4;overflow=hidden;rotatable=0;points=[[0,0.5],[1,0.5]];portConstraint=eastwest;whiteSpace=wrap;html=1;" parent="sUbH88XKsCmU9Ldnoq6X-98" vertex="1">
          <mxGeometry y="78" width="160" height="26" as="geometry" />
        </mxCell>
        <mxCell id="sUbH88XKsCmU9Ldnoq6X-101" value="phoneNum: String" style="text;strokeColor=none;fillColor=none;align=left;verticalAlign=top;spacingLeft=4;spacingRight=4;overflow=hidden;rotatable=0;points=[[0,0.5],[1,0.5]];portConstraint=eastwest;whiteSpace=wrap;html=1;" parent="sUbH88XKsCmU9Ldnoq6X-98" vertex="1">
          <mxGeometry y="104" width="160" height="26" as="geometry" />
        </mxCell>
        <mxCell id="sUbH88XKsCmU9Ldnoq6X-102" value="email: String" style="text;strokeColor=none;fillColor=none;align=left;verticalAlign=top;spacingLeft=4;spacingRight=4;overflow=hidden;rotatable=0;points=[[0,0.5],[1,0.5]];portConstraint=eastwest;whiteSpace=wrap;html=1;" parent="sUbH88XKsCmU9Ldnoq6X-98" vertex="1">
          <mxGeometry y="130" width="160" height="26" as="geometry" />
        </mxCell>
        <mxCell id="sUbH88XKsCmU9Ldnoq6X-114" value="location: String" style="text;strokeColor=none;fillColor=none;align=left;verticalAlign=top;spacingLeft=4;spacingRight=4;overflow=hidden;rotatable=0;points=[[0,0.5],[1,0.5]];portConstraint=eastwest;whiteSpace=wrap;html=1;" parent="sUbH88XKsCmU9Ldnoq6X-98" vertex="1">
          <mxGeometry y="156" width="160" height="26" as="geometry" />
        </mxCell>
        <mxCell id="sUbH88XKsCmU9Ldnoq6X-105" value="Experience" style="swimlane;fontStyle=1;align=center;verticalAlign=top;childLayout=stackLayout;horizontal=1;startSize=26;horizontalStack=0;resizeParent=1;resizeParentMax=0;resizeLast=0;collapsible=1;marginBottom=0;whiteSpace=wrap;html=1;" parent="WIyWlLk6GJQsqaUBKTNV-1" vertex="1">
          <mxGeometry x="466" y="743" width="160" height="130" as="geometry" />
        </mxCell>
        <mxCell id="sUbH88XKsCmU9Ldnoq6X-107" value="nameCompany: String" style="text;strokeColor=none;fillColor=none;align=left;verticalAlign=top;spacingLeft=4;spacingRight=4;overflow=hidden;rotatable=0;points=[[0,0.5],[1,0.5]];portConstraint=eastwest;whiteSpace=wrap;html=1;" parent="sUbH88XKsCmU9Ldnoq6X-105" vertex="1">
          <mxGeometry y="26" width="160" height="26" as="geometry" />
        </mxCell>
        <mxCell id="sUbH88XKsCmU9Ldnoq6X-106" value="JobTitle: String" style="text;strokeColor=none;fillColor=none;align=left;verticalAlign=top;spacingLeft=4;spacingRight=4;overflow=hidden;rotatable=0;points=[[0,0.5],[1,0.5]];portConstraint=eastwest;whiteSpace=wrap;html=1;" parent="sUbH88XKsCmU9Ldnoq6X-105" vertex="1">
          <mxGeometry y="52" width="160" height="26" as="geometry" />
        </mxCell>
        <mxCell id="sUbH88XKsCmU9Ldnoq6X-112" value="beginWork: Date" style="text;strokeColor=none;fillColor=none;align=left;verticalAlign=top;spacingLeft=4;spacingRight=4;overflow=hidden;rotatable=0;points=[[0,0.5],[1,0.5]];portConstraint=eastwest;whiteSpace=wrap;html=1;" parent="sUbH88XKsCmU9Ldnoq6X-105" vertex="1">
          <mxGeometry y="78" width="160" height="26" as="geometry" />
        </mxCell>
        <mxCell id="sUbH88XKsCmU9Ldnoq6X-108" value="endWork: Date" style="text;strokeColor=none;fillColor=none;align=left;verticalAlign=top;spacingLeft=4;spacingRight=4;overflow=hidden;rotatable=0;points=[[0,0.5],[1,0.5]];portConstraint=eastwest;whiteSpace=wrap;html=1;" parent="sUbH88XKsCmU9Ldnoq6X-105" vertex="1">
          <mxGeometry y="104" width="160" height="26" as="geometry" />
        </mxCell>
        <mxCell id="sUbH88XKsCmU9Ldnoq6X-111" value="" style="endArrow=diamondThin;endFill=0;endSize=24;html=1;rounded=0;exitX=0.5;exitY=1.154;exitDx=0;exitDy=0;entryX=0.75;entryY=0;entryDx=0;entryDy=0;exitPerimeter=0;" parent="WIyWlLk6GJQsqaUBKTNV-1" source="sUbH88XKsCmU9Ldnoq6X-108" target="sUbH88XKsCmU9Ldnoq6X-72" edge="1">
          <mxGeometry width="160" relative="1" as="geometry">
            <mxPoint x="431" y="854" as="sourcePoint" />
            <mxPoint x="544" y="926" as="targetPoint" />
          </mxGeometry>
        </mxCell>
        <mxCell id="sUbH88XKsCmU9Ldnoq6X-115" value="" style="endArrow=diamondThin;endFill=0;endSize=24;html=1;rounded=0;entryX=1;entryY=0;entryDx=0;entryDy=0;exitX=0.5;exitY=1;exitDx=0;exitDy=0;" parent="WIyWlLk6GJQsqaUBKTNV-1" source="sUbH88XKsCmU9Ldnoq6X-98" target="sUbH88XKsCmU9Ldnoq6X-72" edge="1">
          <mxGeometry width="160" relative="1" as="geometry">
            <mxPoint x="633" y="902" as="sourcePoint" />
            <mxPoint x="573.5" y="940" as="targetPoint" />
          </mxGeometry>
        </mxCell>
        <mxCell id="sUbH88XKsCmU9Ldnoq6X-120" value="1" style="text;html=1;align=center;verticalAlign=middle;resizable=0;points=[];autosize=1;strokeColor=none;fillColor=none;" parent="WIyWlLk6GJQsqaUBKTNV-1" vertex="1">
          <mxGeometry x="161" y="846" width="25" height="26" as="geometry" />
        </mxCell>
        <mxCell id="sUbH88XKsCmU9Ldnoq6X-121" value="1" style="text;html=1;align=center;verticalAlign=middle;resizable=0;points=[];autosize=1;strokeColor=none;fillColor=none;" parent="WIyWlLk6GJQsqaUBKTNV-1" vertex="1">
          <mxGeometry x="244" y="947" width="25" height="26" as="geometry" />
        </mxCell>
        <mxCell id="sUbH88XKsCmU9Ldnoq6X-122" value="&lt;font style=&quot;font-size: 19px;&quot;&gt;*&lt;/font&gt;" style="text;html=1;align=center;verticalAlign=middle;resizable=0;points=[];autosize=1;strokeColor=none;fillColor=none;" parent="WIyWlLk6GJQsqaUBKTNV-1" vertex="1">
          <mxGeometry x="356" y="827" width="25" height="35" as="geometry" />
        </mxCell>
        <mxCell id="sUbH88XKsCmU9Ldnoq6X-123" value="1" style="text;html=1;align=center;verticalAlign=middle;resizable=0;points=[];autosize=1;strokeColor=none;fillColor=none;" parent="WIyWlLk6GJQsqaUBKTNV-1" vertex="1">
          <mxGeometry x="364" y="928" width="25" height="26" as="geometry" />
        </mxCell>
        <mxCell id="sUbH88XKsCmU9Ldnoq6X-124" value="&lt;font style=&quot;font-size: 20px;&quot;&gt;*&lt;/font&gt;" style="text;html=1;align=center;verticalAlign=middle;resizable=0;points=[];autosize=1;strokeColor=none;fillColor=none;" parent="WIyWlLk6GJQsqaUBKTNV-1" vertex="1">
          <mxGeometry x="523" y="865" width="26" height="36" as="geometry" />
        </mxCell>
        <mxCell id="sUbH88XKsCmU9Ldnoq6X-125" value="1" style="text;html=1;align=center;verticalAlign=middle;resizable=0;points=[];autosize=1;strokeColor=none;fillColor=none;" parent="WIyWlLk6GJQsqaUBKTNV-1" vertex="1">
          <mxGeometry x="517" y="934" width="25" height="26" as="geometry" />
        </mxCell>
        <mxCell id="sUbH88XKsCmU9Ldnoq6X-126" value="1" style="text;html=1;align=center;verticalAlign=middle;resizable=0;points=[];autosize=1;strokeColor=none;fillColor=none;" parent="WIyWlLk6GJQsqaUBKTNV-1" vertex="1">
          <mxGeometry x="730" y="878" width="25" height="26" as="geometry" />
        </mxCell>
        <mxCell id="sUbH88XKsCmU9Ldnoq6X-127" value="1" style="text;html=1;align=center;verticalAlign=middle;resizable=0;points=[];autosize=1;strokeColor=none;fillColor=none;" parent="WIyWlLk6GJQsqaUBKTNV-1" vertex="1">
          <mxGeometry x="612" y="954" width="25" height="26" as="geometry" />
        </mxCell>
        <mxCell id="W7AOLnOKEQAaXoXJiWP4-0" value="" style="endArrow=block;dashed=1;endFill=0;endSize=12;html=1;rounded=0;entryX=0;entryY=1;entryDx=0;entryDy=0;exitX=0.5;exitY=0;exitDx=0;exitDy=0;" edge="1" parent="WIyWlLk6GJQsqaUBKTNV-1" source="sUbH88XKsCmU9Ldnoq6X-78" target="sUbH88XKsCmU9Ldnoq6X-93">
          <mxGeometry width="160" relative="1" as="geometry">
            <mxPoint x="215" y="708" as="sourcePoint" />
            <mxPoint x="375" y="708" as="targetPoint" />
          </mxGeometry>
        </mxCell>
        <mxCell id="W7AOLnOKEQAaXoXJiWP4-1" value="" style="endArrow=block;dashed=1;endFill=0;endSize=12;html=1;rounded=0;exitX=0.5;exitY=0;exitDx=0;exitDy=0;entryX=0.899;entryY=1.029;entryDx=0;entryDy=0;entryPerimeter=0;" edge="1" parent="WIyWlLk6GJQsqaUBKTNV-1" source="sUbH88XKsCmU9Ldnoq6X-98" target="sUbH88XKsCmU9Ldnoq6X-93">
          <mxGeometry width="160" relative="1" as="geometry">
            <mxPoint x="466" y="743" as="sourcePoint" />
            <mxPoint x="568" y="635" as="targetPoint" />
          </mxGeometry>
        </mxCell>
        <mxCell id="W7AOLnOKEQAaXoXJiWP4-2" value="" style="endArrow=block;dashed=1;endFill=0;endSize=12;html=1;rounded=0;entryX=0.31;entryY=0.986;entryDx=0;entryDy=0;entryPerimeter=0;exitX=0.5;exitY=0;exitDx=0;exitDy=0;" edge="1" parent="WIyWlLk6GJQsqaUBKTNV-1" source="sUbH88XKsCmU9Ldnoq6X-87" target="sUbH88XKsCmU9Ldnoq6X-93">
          <mxGeometry width="160" relative="1" as="geometry">
            <mxPoint x="206" y="763" as="sourcePoint" />
            <mxPoint x="308" y="655" as="targetPoint" />
          </mxGeometry>
        </mxCell>
        <mxCell id="W7AOLnOKEQAaXoXJiWP4-3" value="" style="endArrow=block;dashed=1;endFill=0;endSize=12;html=1;rounded=0;entryX=0.721;entryY=0.971;entryDx=0;entryDy=0;entryPerimeter=0;exitX=0.5;exitY=0;exitDx=0;exitDy=0;" edge="1" parent="WIyWlLk6GJQsqaUBKTNV-1" source="sUbH88XKsCmU9Ldnoq6X-105" target="sUbH88XKsCmU9Ldnoq6X-93">
          <mxGeometry width="160" relative="1" as="geometry">
            <mxPoint x="216" y="773" as="sourcePoint" />
            <mxPoint x="318" y="665" as="targetPoint" />
          </mxGeometry>
        </mxCell>
      </root>
    </mxGraphModel>
  </diagram>
</mxfile>
